<svg xmlns="http://www.w3.org/2000/svg" xmlns:xlink="http://www.w3.org/1999/xlink" width="500" zoomAndPan="magnify" viewBox="0 0 375 374.999991" height="500" preserveAspectRatio="xMidYMid meet" version="1.0"><defs><g/><clipPath id="8ac35676a7"><path d="M 36 34 L 281 34 L 281 357 L 36 357 Z M 36 34 " clip-rule="nonzero"/></clipPath><clipPath id="24133d694b"><path d="M 63.882812 21.046875 L 304.902344 45.457031 L 271.496094 375.269531 L 30.480469 350.859375 Z M 63.882812 21.046875 " clip-rule="nonzero"/></clipPath><clipPath id="3eb3c876ee"><path d="M 63.882812 21.046875 L 304.902344 45.457031 L 271.496094 375.269531 L 30.480469 350.859375 Z M 63.882812 21.046875 " clip-rule="nonzero"/></clipPath><clipPath id="3de2b2bfcd"><path d="M 55.011719 56 L 118 56 L 118 118.882812 L 55.011719 118.882812 Z M 55.011719 56 " clip-rule="nonzero"/></clipPath><clipPath id="afc34f3da9"><path d="M 98 36.382812 L 136.011719 36.382812 L 136.011719 75 L 98 75 Z M 98 36.382812 " clip-rule="nonzero"/></clipPath></defs><g fill="#e0ebcd" fill-opacity="1"><g transform="translate(217.35992, 52.356525)"><g><path d="M 1.515625 0.226562 L 7.582031 1.128906 C 14.804688 2.207031 17.828125 -0.929688 18.265625 -4.265625 C 18.667969 -7.183594 16.886719 -9.914062 12.078125 -10.871094 C 15.558594 -10.992188 17.140625 -12.640625 17.445312 -14.660156 C 17.804688 -17.070312 16.15625 -18.867188 11.578125 -19.546875 L 4.621094 -20.585938 L 4.5625 -20.199219 C 5.414062 -19.800781 5.609375 -19.070312 5.246094 -16.632812 L 3.269531 -3.371094 C 2.90625 -0.933594 2.503906 -0.296875 1.574219 -0.160156 Z M 5.597656 -2.265625 L 6.933594 -11.246094 L 9.96875 -10.792969 C 14.425781 -10.128906 15.957031 -7.347656 15.449219 -3.925781 C 14.957031 -0.625 12.761719 1.445312 7.914062 0.722656 L 6.757812 0.550781 C 5.476562 0.359375 5.277344 -0.125 5.597656 -2.265625 Z M 7 -11.691406 L 8.179688 -19.597656 L 10.441406 -19.261719 C 13.503906 -18.804688 15.027344 -16.996094 14.660156 -14.53125 C 14.335938 -12.359375 12.710938 -10.839844 9.765625 -11.277344 Z M 7 -11.691406 "/></g></g></g><g fill="#e0ebcd" fill-opacity="1"><g transform="translate(235.445581, 54.99643)"><g><path d="M -0.484375 -0.167969 L 2.726562 0.945312 L 2.855469 0.574219 C 1.957031 0.0429688 2.167969 -0.933594 3.546875 -2.527344 L 6.65625 -6.09375 L 14.667969 -3.320312 L 14.957031 1.453125 C 15.128906 3.898438 15.160156 4.546875 14.1875 4.496094 L 14.0625 4.867188 L 18.464844 6.390625 L 18.59375 6.023438 C 18.085938 5.558594 17.597656 4.753906 17.457031 2.320312 L 16.277344 -16.886719 L 13.8125 -16.660156 L 13.863281 -15.972656 C 13.933594 -15.441406 13.832031 -15.0625 13.457031 -14.617188 L 3.0625 -2.691406 C 1.4375 -0.839844 0.527344 -0.515625 -0.355469 -0.535156 Z M 6.976562 -6.460938 L 13.988281 -14.5 L 14.644531 -3.804688 Z M 6.976562 -6.460938 "/></g></g></g><g fill="#e0ebcd" fill-opacity="1"><g transform="translate(253.520356, 61.285512)"><g><path d="M 14.519531 8.523438 C 15.039062 8.820312 15.75 9.15625 16.214844 9.25 L 16.394531 8.9375 C 16.25 8.886719 16.117188 8.8125 15.960938 8.722656 C 15.074219 8.21875 15.042969 7.058594 15.578125 3.210938 C 16.15625 -0.71875 16.566406 -2.59375 13.59375 -4.84375 C 17.210938 -3.296875 20.046875 -4.140625 21.445312 -6.59375 C 22.769531 -8.917969 22.203125 -11.558594 16.902344 -14.582031 L 11.757812 -17.519531 L 11.5625 -17.179688 C 12.238281 -16.480469 12.132812 -15.746094 10.910156 -13.605469 L 4.269531 -1.960938 C 3.046875 0.179688 2.46875 0.648438 1.523438 0.421875 L 1.332031 0.757812 L 5.5625 3.171875 L 5.753906 2.832031 C 5.078125 2.136719 5.1875 1.402344 6.410156 -0.738281 L 9.894531 -6.847656 L 11.566406 -5.894531 C 14.699219 -4.109375 13.863281 -2.160156 13.324219 2.304688 C 12.921875 5.675781 12.507812 7.375 14.519531 8.523438 Z M 10.117188 -7.242188 L 14.691406 -15.257812 C 15.121094 -15.046875 15.554688 -14.832031 15.949219 -14.609375 C 19.8125 -12.40625 20.210938 -9.582031 18.882812 -7.257812 C 17.617188 -5.039062 15.3125 -4.277344 12.3125 -5.988281 Z M 10.117188 -7.242188 "/></g></g></g><g fill="#e0ebcd" fill-opacity="1"><g transform="translate(269.419924, 70.378024)"><g><path d="M 1.175781 0.984375 L 12.546875 10.488281 L 15.292969 7.574219 L 15.078125 7.316406 C 12.457031 8.769531 10.527344 8.214844 8.316406 6.363281 L 5.316406 3.855469 C 4.648438 3.296875 4.585938 2.621094 5.148438 1.953125 L 11.066406 -5.128906 L 14.019531 -2.660156 C 16.648438 -0.460938 16.871094 0.628906 16.28125 1.898438 L 16.558594 2.128906 L 19.46875 -1.355469 L 19.191406 -1.585938 C 18.046875 -0.777344 16.9375 -0.808594 14.308594 -3.007812 L 11.355469 -5.472656 L 17.199219 -12.460938 L 20.585938 -9.628906 C 22.941406 -7.660156 23.722656 -5.832031 22.832031 -3.128906 L 23.144531 -2.984375 L 25.398438 -6.195312 L 14.671875 -15.160156 L 14.421875 -14.859375 C 14.941406 -14.074219 14.726562 -13.351562 13.148438 -11.460938 L 4.546875 -1.175781 C 2.964844 0.71875 2.292969 1.054688 1.425781 0.683594 Z M 1.175781 0.984375 "/></g></g></g><g fill="#e0ebcd" fill-opacity="1"><g transform="translate(282.979151, 82.190051)"><g/></g></g><g fill="#e0ebcd" fill-opacity="1"><g transform="translate(287.789577, 86.672948)"><g><path d="M 9.902344 14.316406 L 10.128906 14.636719 L 24.355469 4.503906 C 26.363281 3.074219 27.082031 2.890625 27.84375 3.496094 L 28.160156 3.269531 L 25.964844 0.183594 L 25.644531 0.410156 C 26.136719 1.71875 25.871094 2.796875 23.078125 4.785156 L 13.308594 11.742188 L 19.546875 -8.828125 L 17.835938 -11.226562 L 17.519531 -11 C 17.996094 -9.863281 17.640625 -9.167969 15.632812 -7.738281 L 4.714844 0.0390625 C 2.707031 1.46875 1.96875 1.625 1.226562 1.046875 L 0.90625 1.273438 L 3.085938 4.332031 L 3.40625 4.105469 C 2.914062 2.796875 3.179688 1.71875 5.972656 -0.269531 L 16.695312 -7.90625 Z M 9.902344 14.316406 "/></g></g></g><g fill="#e0ebcd" fill-opacity="1"><g transform="translate(299.22668, 103.553596)"><g/></g></g><g fill="#e0ebcd" fill-opacity="1"><g transform="translate(302.581784, 109.316619)"><g><path d="M 2.804688 8.101562 C 4.085938 11.410156 7.472656 13.839844 10.976562 12.484375 C 14.144531 11.261719 14.253906 7.867188 14.285156 4.277344 C 14.347656 1.515625 14.296875 -1.785156 16.933594 -2.800781 C 19.316406 -3.722656 21.378906 -2.296875 22.257812 -0.0234375 C 23.492188 3.171875 22.511719 5.804688 20.472656 7.785156 L 20.664062 8.035156 L 23.875 6.664062 C 24.042969 5.34375 24.039062 3.25 23.054688 0.699219 C 21.460938 -3.421875 18.335938 -5.339844 15.054688 -4.074219 C 12.082031 -2.925781 11.714844 -0.367188 11.675781 3.449219 C 11.632812 6.171875 11.675781 10.121094 8.871094 11.203125 C 6.597656 12.082031 4.394531 10.710938 3.527344 8.464844 C 2.023438 4.566406 3.695312 1.472656 6.21875 -0.757812 L 6.042969 -1.042969 L 2.199219 0.601562 C 1.753906 2.289062 1.667969 5.15625 2.804688 8.101562 Z M 2.804688 8.101562 "/></g></g></g><g fill="#e0ebcd" fill-opacity="1"><g transform="translate(308.379509, 125.114834)"><g><path d="M 0.371094 1.488281 L 1.550781 6.210938 L 1.929688 6.117188 C 1.964844 5.148438 2.570312 4.71875 4.960938 4.121094 L 17.972656 0.878906 C 20.363281 0.28125 21.097656 0.378906 21.585938 1.21875 L 21.964844 1.121094 L 20.789062 -3.601562 L 20.410156 -3.507812 C 20.363281 -2.566406 19.765625 -2.109375 17.375 -1.511719 L 4.367188 1.730469 C 1.972656 2.328125 1.230469 2.203125 0.75 1.394531 Z M 0.371094 1.488281 "/></g></g></g><g fill="#e0ebcd" fill-opacity="1"><g transform="translate(310.986714, 132.720318)"><g><path d="M 0.121094 1.5 L 0.429688 5.273438 L 0.816406 5.242188 C 1.070312 3.894531 1.851562 3.105469 5.265625 2.828125 L 18.570312 1.746094 L 6.578125 10.441406 L 6.625 11.011719 L 20.097656 17.578125 L 5.355469 18.777344 C 2.898438 18.976562 2.1875 18.734375 1.84375 17.855469 L 1.453125 17.886719 L 1.847656 22.742188 L 2.238281 22.710938 C 2.433594 21.757812 3.101562 21.433594 5.558594 21.234375 L 17.722656 20.242188 C 21.136719 19.964844 22.027344 20.527344 22.484375 21.695312 L 22.875 21.664062 L 22.597656 18.277344 L 9.0625 11.660156 L 21.339844 2.789062 L 21.042969 -0.835938 L 20.65625 -0.804688 C 20.390625 0.421875 19.605469 1.121094 16.1875 1.398438 L 4.023438 2.386719 C 1.566406 2.585938 0.855469 2.375 0.511719 1.464844 Z M 0.121094 1.5 "/></g></g></g><g fill="#e0ebcd" fill-opacity="1"><g transform="translate(312.593041, 157.368292)"><g><path d="M -0.1875 1.523438 L -0.78125 6.355469 L -0.390625 6.402344 C -0.0117188 5.511719 0.710938 5.328125 3.15625 5.625 L 7.632812 6.175781 L 7.371094 8.292969 C 6.691406 13.84375 9.109375 17.078125 13.078125 17.566406 C 15.972656 17.921875 19.199219 16.320312 19.957031 10.140625 L 20.699219 4.085938 L 20.3125 4.039062 C 19.933594 4.898438 19.210938 5.113281 16.761719 4.8125 L 3.457031 3.179688 C 1.007812 2.878906 0.359375 2.496094 0.199219 1.570312 Z M 8.078125 6.230469 L 19.746094 7.664062 C 19.730469 8.023438 19.703125 8.507812 19.652344 8.921875 C 19.0625 13.726562 15.90625 15.25 12.714844 14.855469 C 9.191406 14.425781 7.355469 12.109375 7.824219 8.289062 Z M 8.078125 6.230469 "/></g></g></g><g fill="#e0ebcd" fill-opacity="1"><g transform="translate(310.556225, 173.852487)"><g><path d="M -0.429688 1.472656 L -4.367188 14.882812 L -1.164062 16.042969 L -1.015625 15.742188 C -2.882812 14.097656 -3.203125 12.625 -2.390625 9.855469 L -1.382812 6.421875 C -1.136719 5.585938 -0.539062 5.261719 0.296875 5.507812 L 15.066406 9.839844 C 17.429688 10.53125 18.015625 10.988281 18.015625 11.957031 L 18.390625 12.066406 L 19.761719 7.394531 L 19.386719 7.285156 C 18.871094 8.074219 18.125 8.167969 15.757812 7.472656 L 2.894531 3.699219 C 0.527344 3.003906 -0.0507812 2.523438 -0.0546875 1.582031 Z M -0.429688 1.472656 "/></g></g></g><g fill="#e0ebcd" fill-opacity="1"><g transform="translate(306.019625, 189.520518)"><g><path d="M -0.671875 1.378906 L -7.167969 14.699219 L -3.679688 16.667969 L -3.480469 16.394531 C -5.519531 14.199219 -5.445312 12.195312 -4.179688 9.601562 L -2.46875 6.089844 C -2.085938 5.304688 -1.441406 5.082031 -0.65625 5.464844 L 7.636719 9.507812 L 5.949219 12.96875 C 4.449219 16.046875 3.445312 16.527344 2.070312 16.261719 L 1.914062 16.585938 L 5.992188 18.574219 L 6.152344 18.25 C 5.09375 17.332031 4.855469 16.246094 6.355469 13.164062 L 8.042969 9.707031 L 16.230469 13.699219 L 14.292969 17.671875 C 12.949219 20.425781 11.359375 21.625 8.523438 21.414062 L 8.457031 21.75 L 12.117188 23.164062 L 18.242188 10.601562 L 17.890625 10.429688 C 17.253906 11.121094 16.5 11.089844 14.285156 10.007812 L 2.234375 4.132812 C 0.015625 3.050781 -0.472656 2.476562 -0.320312 1.550781 Z M -0.671875 1.378906 "/></g></g></g><g clip-path="url(#8ac35676a7)"><g clip-path="url(#24133d694b)"><g clip-path="url(#3eb3c876ee)"><path fill="#e0ebcd" d="M 108.878906 355.71875 C 108.933594 355.191406 114.171875 346.589844 120.527344 336.609375 C 138.207031 308.820312 138.976562 306.871094 142.722656 280.222656 C 145.210938 262.511719 145.863281 260.015625 149.507812 254.25 C 150.8125 252.183594 153.253906 249.007812 154.9375 247.191406 C 157.46875 244.453125 158.488281 242.925781 160.925781 238.203125 C 162.542969 235.074219 164.367188 231.714844 164.980469 230.738281 C 166.390625 228.503906 166.402344 228.324219 165.070312 229.015625 C 160.847656 231.210938 161.691406 224.886719 165.996094 222.097656 C 168.410156 220.53125 176.449219 214.441406 177.082031 213.695312 C 177.355469 213.375 178.179688 211.902344 178.914062 210.429688 C 181.148438 205.945312 182.269531 205.167969 186.496094 205.152344 C 187.820312 205.148438 188.917969 205.007812 188.9375 204.835938 C 189.0625 203.59375 188.351562 200.40625 187.941406 200.363281 C 186.601562 200.226562 180.785156 201.773438 178.539062 202.863281 C 173.800781 205.160156 171.003906 206.226562 169.972656 206.132812 C 167.785156 205.929688 167.199219 203.152344 168.90625 201.058594 C 170.214844 199.453125 175.429688 195.191406 177.863281 193.734375 C 180.523438 192.144531 183.125 191.035156 185.902344 190.308594 L 188.054688 189.746094 L 188.796875 184.441406 C 189.695312 178.058594 191.050781 172.9375 193.066406 168.296875 C 195.796875 162.015625 198.832031 158.132812 205.542969 152.339844 C 209.578125 148.851562 211.160156 147.269531 211.222656 146.65625 C 211.292969 145.976562 208.945312 146.203125 203.425781 147.410156 C 196.644531 148.894531 193.429688 148.957031 190.226562 147.664062 C 187.101562 146.398438 184.3125 143.148438 182.804688 139.011719 C 182.167969 137.261719 181.582031 135.429688 181.507812 134.945312 C 181.375 134.101562 181.324219 134.089844 180.304688 134.621094 C 179.003906 135.296875 177.972656 134.929688 176.105469 133.132812 L 174.742188 131.816406 L 174.601562 133.175781 C 174.484375 134.339844 172.601562 139.527344 171.535156 141.625 C 171.261719 142.160156 171.410156 142.3125 172.300781 142.402344 C 174.132812 142.585938 176.296875 144.21875 179.691406 147.980469 C 181.464844 149.945312 183.695312 152.050781 184.640625 152.65625 C 187.667969 154.59375 187.875 155.871094 185.296875 156.65625 C 184.257812 156.972656 183.800781 157.390625 183.527344 158.277344 C 183.070312 159.765625 180.421875 161.386719 177.550781 161.929688 C 175.203125 162.375 170.964844 162.03125 167.582031 161.121094 C 165.828125 160.648438 165.128906 160.601562 164.734375 160.933594 C 164.214844 161.375 162.769531 167.125 162.492188 169.867188 C 162.242188 172.316406 162.523438 172.441406 170.777344 173.558594 C 183.292969 175.253906 187.820312 176.777344 187.855469 179.300781 C 187.875 180.808594 186.867188 181.65625 183.558594 182.925781 C 177.511719 185.238281 170.132812 186.03125 163.96875 185.035156 C 155.375 183.640625 147.539062 178.171875 138.710938 167.402344 C 136.246094 164.398438 133.769531 161.191406 133.207031 160.277344 L 132.183594 158.621094 L 132.398438 162.195312 C 132.738281 167.761719 130.839844 186.109375 129.253906 192.621094 C 126.648438 203.316406 123.53125 212.390625 120.574219 217.90625 C 114.21875 229.753906 102.644531 237.046875 78.144531 244.640625 C 68.417969 247.65625 62.363281 249.886719 59.039062 251.683594 C 48.019531 257.644531 42.96875 267.050781 39.285156 288.46875 C 38.359375 293.847656 38.238281 295.230469 38.558594 296.589844 C 38.9375 298.191406 38.992188 298.234375 40.773438 298.394531 C 42.933594 298.582031 46.191406 297.125 57.804688 290.761719 C 68.292969 285.011719 74.277344 282.753906 79.59375 282.542969 C 84.644531 282.339844 87.945312 283.730469 93.625 288.457031 C 99.003906 292.9375 102.601562 294.449219 105.847656 293.585938 C 107.566406 293.132812 109.996094 291.039062 111.261719 288.929688 L 112.375 287.066406 L 111.445312 285.875 C 110.367188 284.492188 109.542969 282.042969 109.6875 280.640625 C 109.742188 280.101562 110.261719 279.207031 110.84375 278.652344 C 111.777344 277.769531 112.039062 277.707031 112.996094 278.152344 C 114.535156 278.867188 115.246094 281.011719 114.941406 284.023438 C 114.707031 286.34375 114.753906 286.53125 115.78125 287.199219 C 117.761719 288.492188 122.4375 290.035156 128.960938 291.546875 C 135.289062 293.015625 136.484375 293.566406 135.347656 294.492188 C 134.921875 294.84375 133.285156 294.570312 127.410156 293.167969 C 121.003906 291.640625 117.320312 290.382812 114.40625 288.71875 C 113.921875 288.441406 113.644531 288.667969 113.171875 289.730469 C 112.269531 291.75 108.550781 294.898438 106.367188 295.488281 C 102.382812 296.566406 98.296875 294.9375 92.160156 289.824219 C 90.59375 288.519531 88.4375 286.9375 87.371094 286.3125 C 81.210938 282.703125 74.105469 284.203125 59.117188 292.277344 C 46.542969 299.054688 46.296875 299.179688 44.023438 299.972656 C 41.160156 300.96875 38.53125 300.71875 37.488281 299.355469 C 36.25 297.742188 36.207031 294.578125 37.332031 288.179688 C 40.863281 268.058594 45.699219 258.011719 54.769531 251.960938 C 59.144531 249.039062 63.835938 247.082031 74.4375 243.75 C 91.0625 238.519531 97.753906 235.757812 105.339844 230.976562 C 113.4375 225.878906 118.199219 219.917969 121.800781 210.371094 C 125.785156 199.808594 127.960938 190.96875 129.414062 179.441406 C 131.101562 166.007812 130.917969 157.15625 128.816406 151.03125 C 126.941406 145.558594 126.726562 142.8125 127.53125 134.667969 C 128.277344 127.085938 128.738281 124.84375 132.570312 110.089844 C 133.640625 105.964844 134.542969 102.320312 134.578125 101.996094 C 134.683594 100.945312 131.332031 97.070312 130.222656 96.957031 C 127.675781 96.699219 124.195312 100.058594 122.207031 104.691406 C 121.214844 106.992188 120.941406 108.320312 120.453125 113.160156 C 119.800781 119.578125 120.179688 124.019531 121.542969 125.96875 L 122.3125 127.074219 L 122.859375 124.152344 C 123.796875 119.148438 125.460938 116.464844 127.492188 116.671875 C 130.085938 116.933594 130.308594 120.328125 127.980469 124.117188 C 127.214844 125.359375 126.050781 126.835938 125.390625 127.398438 C 124.203125 128.410156 124.1875 128.472656 124.039062 132.261719 C 123.871094 136.675781 124.285156 141.207031 125.769531 151.027344 C 127.113281 159.941406 127.304688 163.402344 126.667969 167.445312 C 126.117188 170.957031 124.804688 173.585938 123.289062 174.210938 C 121.761719 174.839844 119.875 174.355469 118.878906 173.078125 C 116.699219 170.285156 116.195312 165.558594 116.949219 154.960938 C 117.585938 145.988281 118.578125 140.496094 120.804688 133.628906 C 121.59375 131.199219 122.191406 129.183594 122.136719 129.152344 C 120.265625 127.972656 119.867188 127.488281 119.195312 125.597656 C 117.460938 120.703125 117.925781 110.324219 120.144531 104.53125 C 121.320312 101.464844 123.589844 98.128906 125.359375 96.867188 C 126.148438 96.304688 126.726562 95.597656 126.640625 95.292969 C 126.464844 94.636719 129.9375 83.429688 132.265625 77.15625 C 141.753906 51.558594 156.402344 37.285156 175.953125 34.59375 C 183.976562 33.488281 192.46875 34.042969 197.167969 35.976562 C 199.484375 36.929688 201.796875 39.25 202.671875 41.5 C 204.519531 46.253906 202.214844 52.785156 198.070312 54.53125 C 196.929688 55.015625 195.667969 55.007812 190.367188 54.496094 C 183.148438 53.796875 183.433594 53.75 174.351562 57.203125 C 165.273438 60.652344 160.78125 63.078125 155.792969 67.21875 C 151.816406 70.519531 149.308594 73.382812 146.6875 77.632812 C 143.324219 83.078125 143.316406 82.824219 146.777344 81.652344 C 156.488281 78.363281 162.03125 77.75 165.257812 79.601562 C 167.738281 81.027344 172.039062 85.34375 172.628906 86.996094 C 172.90625 87.785156 173.070312 89.203125 172.988281 90.152344 C 172.851562 91.710938 172.984375 92.003906 174.375 93.230469 C 175.304688 94.054688 176.222656 95.40625 176.699219 96.664062 C 177.386719 98.488281 177.429688 99.230469 177.042969 102.699219 C 176.242188 109.90625 174.078125 114.363281 168.722656 119.847656 C 164.65625 124.011719 164.238281 124.683594 165.191406 125.570312 C 165.757812 126.09375 166.640625 126.257812 169.371094 126.335938 C 173.40625 126.453125 177.628906 127.46875 179.351562 128.730469 C 180.75 129.753906 180.785156 129.664062 180.3125 126.21875 C 179.863281 122.933594 180.109375 120.632812 180.976562 120.050781 C 181.746094 119.535156 191.511719 119.789062 198.878906 120.515625 C 202.941406 120.917969 203.351562 121.03125 205 122.242188 C 208.152344 124.550781 208.558594 127.085938 206.78125 133.359375 C 205.890625 136.503906 205.871094 137.847656 206.683594 139.828125 C 207.054688 140.722656 209.171875 142.359375 209.554688 142.046875 C 209.667969 141.953125 209.578125 140.898438 209.347656 139.699219 C 209.121094 138.5 208.898438 135.265625 208.859375 132.511719 C 208.757812 126.125 208.382812 124.21875 205.9375 117.796875 C 203.351562 110.996094 202.90625 108.59375 203.585938 105.003906 C 204.644531 99.382812 207.941406 94.230469 210.332031 94.472656 C 211.335938 94.574219 211.800781 95.09375 213.640625 98.167969 C 216.023438 102.144531 217.125 103.695312 222.179688 110.160156 L 225.652344 114.597656 L 228.433594 112.90625 C 230.609375 111.578125 232.121094 111.03125 235.394531 110.378906 C 237.691406 109.921875 241.78125 109.070312 244.480469 108.484375 C 250.429688 107.199219 251.714844 107.253906 252.53125 108.828125 C 253.042969 109.808594 253.027344 110.925781 252.4375 116.769531 L 251.746094 123.574219 L 249.78125 126.617188 C 247.839844 129.625 247.828125 129.660156 248.75 129.753906 C 250.265625 129.90625 250.492188 131.125 249.644531 134.5625 C 247.417969 143.574219 243.90625 147.085938 235.753906 148.453125 L 232.78125 148.953125 L 235.640625 149.054688 C 241.527344 149.269531 245.679688 150.941406 247.179688 153.707031 C 248.019531 155.253906 250.347656 162.769531 250.492188 164.386719 C 250.597656 165.605469 251.050781 165.464844 243.191406 166.605469 C 238.320312 167.308594 233.933594 166.875 231.808594 165.480469 C 230.292969 164.484375 230.257812 164.707031 231.621094 166.800781 C 232.75 168.539062 233.070312 171.15625 232.382812 173.046875 C 231.640625 175.105469 228.742188 175.367188 223.910156 173.824219 C 220.285156 172.664062 218.441406 171.449219 215.753906 168.449219 C 214.5 167.050781 212.574219 165.296875 211.476562 164.550781 C 207.117188 161.597656 206.855469 159.234375 210.214844 153.121094 C 211.324219 151.097656 212.351562 149.277344 212.5 149.074219 C 212.839844 148.609375 206.433594 154.132812 203.722656 156.644531 C 198.28125 161.683594 194.78125 167.679688 192.445312 175.960938 C 191.472656 179.410156 189.804688 189.359375 190.195312 189.398438 C 190.3125 189.410156 192.203125 189.230469 194.394531 189 C 199.546875 188.460938 204.691406 188.640625 206.753906 189.433594 C 209.070312 190.324219 211.625 193.367188 215.449219 199.785156 C 217.28125 202.863281 220.085938 207.199219 221.683594 209.425781 C 228.828125 219.386719 229.449219 222.96875 227.496094 242.957031 C 226.859375 249.488281 226.117188 259.03125 225.851562 264.164062 L 225.367188 273.492188 L 227.898438 276.105469 C 233.488281 281.863281 240.121094 285.535156 250.238281 288.484375 C 252.816406 289.238281 257.199219 289.921875 266.964844 291.089844 C 279.855469 292.636719 280.199219 292.699219 280.121094 293.46875 C 280.042969 294.238281 279.738281 294.234375 270.132812 293.375 C 264.683594 292.886719 258.113281 292.082031 255.527344 291.582031 C 243.199219 289.210938 234.011719 284.898438 227.351562 278.347656 L 224.210938 275.257812 L 222.910156 277.511719 C 219.871094 282.789062 215.644531 283.484375 212.238281 279.269531 C 211.332031 278.148438 210.117188 276.070312 209.542969 274.652344 C 206.996094 268.375 207.21875 259.285156 209.941406 258.164062 C 212.503906 257.109375 215.222656 259.160156 219.859375 265.640625 C 221.699219 268.214844 223.296875 270.25 223.40625 270.160156 C 223.519531 270.070312 223.878906 265.382812 224.203125 259.738281 C 224.53125 254.097656 225.253906 245.296875 225.8125 240.1875 C 226.601562 232.941406 226.761719 230.066406 226.53125 227.144531 C 225.964844 219.980469 224.953125 217.402344 219.96875 210.445312 C 218.378906 208.222656 215.578125 203.894531 213.75 200.824219 C 210.351562 195.121094 208.136719 192.273438 206.441406 191.425781 C 204.898438 190.652344 200.75 190.40625 196.074219 190.8125 C 189.945312 191.34375 190.316406 191.199219 190.128906 193.117188 C 190.039062 194.027344 190.007812 195.449219 190.058594 196.28125 L 190.15625 197.785156 L 193.394531 197.875 C 196.359375 197.957031 196.738281 198.054688 197.910156 199.042969 C 198.777344 199.773438 199.679688 201.332031 200.710938 203.867188 C 203.28125 210.191406 202.574219 211.164062 196.804688 209.230469 C 194.828125 208.566406 191.441406 207.757812 189.273438 207.433594 C 184.414062 206.703125 182.972656 207.117188 181.363281 209.695312 C 179.769531 212.253906 179.910156 212.496094 182.371094 211.429688 C 185.757812 209.964844 188.964844 209.523438 191.980469 210.101562 C 195.480469 210.773438 211.472656 216.257812 211.777344 216.890625 C 211.914062 217.171875 211.785156 217.59375 211.492188 217.832031 C 211.074219 218.175781 209.199219 217.667969 202.65625 215.425781 C 192.3125 211.886719 189.335938 211.296875 186.136719 212.148438 C 184.863281 212.488281 182.652344 213.363281 181.226562 214.09375 C 178.738281 215.367188 173.511719 218.59375 173.65625 218.769531 C 173.695312 218.816406 176.488281 218.210938 179.867188 217.421875 C 185.363281 216.144531 186.359375 216.03125 189.371094 216.332031 C 193.09375 216.710938 194.347656 217.183594 198.902344 219.929688 C 201.25 221.34375 201.992188 221.996094 201.933594 222.585938 C 201.816406 223.730469 200.644531 223.453125 197.726562 221.59375 C 194.628906 219.617188 191.546875 218.324219 189.445312 218.109375 C 187.261719 217.890625 183.484375 218.488281 177.71875 219.972656 C 169.023438 222.203125 165.964844 223.644531 164.851562 226.039062 L 164.3125 227.1875 L 166.085938 226.320312 C 167.058594 225.847656 169.257812 224.9375 170.972656 224.304688 C 173.945312 223.203125 174.265625 223.171875 178.042969 223.578125 C 185.792969 224.410156 192.425781 227.574219 196.722656 232.492188 C 201.300781 237.738281 201.886719 241.835938 199.554688 252.402344 C 197.351562 262.375 197.113281 269.148438 198.707031 276.269531 C 199.769531 281 206.503906 298.675781 209.675781 305.050781 C 210.445312 306.59375 210.5625 307.171875 210.171875 307.492188 C 209.828125 307.773438 209.476562 307.761719 209.089844 307.457031 C 207.894531 306.519531 199.535156 286.359375 197.546875 279.617188 C 196.738281 276.886719 196.363281 276.164062 195.644531 275.984375 C 194.441406 275.683594 192.328125 273.121094 191.515625 270.976562 C 191.152344 270.019531 190.546875 267.492188 190.171875 265.367188 C 189.328125 260.613281 188.667969 258.824219 187.207031 257.320312 C 185.855469 255.925781 185.898438 255.933594 184.167969 256.761719 C 183.113281 257.265625 182.816406 257.632812 182.890625 258.328125 C 182.941406 258.832031 182.976562 260.414062 182.964844 261.851562 L 182.941406 264.460938 L 184.925781 265.386719 C 186.558594 266.148438 187.558594 267.128906 190.582031 270.941406 C 192.601562 273.492188 194.730469 276.433594 195.316406 277.480469 C 196.316406 279.277344 196.359375 279.597656 196.015625 282.949219 C 195.8125 284.910156 195.339844 287.253906 194.964844 288.164062 C 194.289062 289.796875 192.953125 291.238281 192.1875 291.160156 C 191.363281 291.078125 188.882812 287.84375 186.304688 283.492188 L 183.625 278.972656 L 182.859375 284.054688 C 181.960938 290.035156 180.984375 292.625 175.851562 302.667969 C 171.539062 311.105469 170.410156 313.910156 169.667969 318.03125 C 169.339844 319.851562 168.628906 322.386719 168.082031 323.671875 C 167.230469 325.683594 153.269531 346.300781 152.132812 347.230469 C 151.503906 347.742188 150.582031 346.597656 150.992188 345.808594 C 151.179688 345.445312 154.53125 340.535156 158.441406 334.898438 C 162.347656 329.261719 165.976562 323.613281 166.5 322.34375 C 167.910156 318.941406 168.371094 313.066406 167.769531 306.078125 C 166.820312 295.089844 167.226562 288.621094 169.132812 284.324219 C 170.488281 281.269531 176.273438 277.289062 180.503906 276.5 C 183.617188 275.921875 184.585938 276.683594 188 282.410156 C 191.257812 287.871094 192.273438 289.179688 192.632812 288.359375 C 193.769531 285.757812 194.066406 284.765625 194.28125 282.882812 C 194.425781 281.582031 194.3125 280.179688 193.992188 279.367188 C 193.152344 277.242188 186.933594 269.132812 185.132812 267.820312 C 182.582031 265.957031 179.902344 265.851562 175.652344 267.457031 C 173.789062 268.15625 171.890625 268.921875 171.433594 269.15625 C 170.972656 269.390625 169.738281 270.015625 168.691406 270.546875 C 167.644531 271.078125 165.667969 272.289062 164.300781 273.238281 C 161.910156 274.902344 160.625 275.117188 160.753906 273.839844 C 160.808594 273.304688 164.941406 270.40625 168.070312 268.710938 C 168.886719 268.269531 169.851562 267.570312 170.21875 267.160156 C 173.003906 264.039062 181.960938 255.695312 183.144531 255.117188 C 185.296875 254.070312 187.179688 254.398438 188.753906 256.085938 C 190.410156 257.867188 191.132812 259.761719 192.101562 264.859375 C 192.53125 267.117188 193.105469 269.546875 193.375 270.253906 C 193.902344 271.628906 195.496094 273.902344 195.96875 273.949219 C 196.125 273.964844 196.09375 273.015625 195.890625 271.84375 C 195.6875 270.667969 195.652344 267.199219 195.804688 264.132812 L 196.089844 258.5625 L 194.148438 254.050781 C 191.070312 246.898438 188.949219 244.695312 184.707031 244.238281 C 182.609375 244.011719 181.789062 244.167969 178.386719 245.457031 C 174.097656 247.085938 168.363281 250.429688 161.5 255.308594 C 157.398438 258.222656 155.878906 258.824219 156.015625 257.472656 C 156.117188 256.464844 168.03125 248.355469 173.621094 245.488281 C 179.164062 242.648438 181.527344 241.984375 184.941406 242.300781 C 189.789062 242.746094 192.445312 245.203125 195.46875 252.03125 L 196.90625 255.273438 L 198.375 248.804688 L 195.496094 245.179688 C 186.878906 234.34375 181.726562 233.21875 169.527344 239.511719 C 160.417969 244.214844 155.886719 248.027344 151.523438 254.664062 C 147.785156 260.355469 146.765625 264.324219 144.222656 283.101562 C 142.121094 298.617188 140.800781 304.230469 137.457031 311.804688 C 135.011719 317.351562 132.328125 321.871094 121.058594 339.433594 C 110.464844 355.941406 108.605469 358.429688 108.878906 355.71875 Z M 174.222656 301.734375 C 179.003906 292.269531 180.503906 288.203125 181.140625 282.980469 C 181.410156 280.773438 181.507812 278.820312 181.363281 278.640625 C 180.722656 277.847656 174.269531 281.074219 172.265625 283.1875 C 170.28125 285.289062 169.0625 290.585938 169.183594 296.625 C 169.285156 301.785156 169.984375 310.324219 170.25 309.691406 C 170.375 309.394531 172.160156 305.816406 174.222656 301.734375 Z M 112.878906 280.734375 C 112.683594 280.257812 112.34375 279.957031 112.121094 280.0625 C 111.503906 280.363281 111.507812 281.699219 112.128906 283.171875 L 112.691406 284.507812 L 112.960938 283.050781 C 113.113281 282.25 113.074219 281.207031 112.878906 280.734375 Z M 219.308594 279.011719 C 220.710938 277.828125 222.59375 274.960938 222.726562 273.8125 C 222.765625 273.460938 221.066406 270.75 218.945312 267.789062 C 212.472656 258.734375 210.363281 257.78125 209.769531 263.632812 C 209.285156 268.410156 211.269531 275.425781 213.933594 278.375 C 215.785156 280.421875 217.410156 280.617188 219.308594 279.011719 Z M 180.132812 264.359375 C 181.144531 264.449219 181.152344 264.4375 181.113281 262.023438 C 181.089844 260.6875 181.011719 259.519531 180.941406 259.433594 C 180.828125 259.296875 178.085938 261.882812 175.164062 264.878906 L 174.394531 265.667969 L 176.757812 264.96875 C 178.054688 264.582031 179.574219 264.304688 180.132812 264.359375 Z M 198.964844 243.125 C 199.058594 239.957031 198.035156 237.0625 195.96875 234.65625 C 194.855469 233.359375 193.90625 232.847656 189.453125 231.15625 C 183.34375 228.839844 180.507812 228.398438 177.980469 229.378906 C 176.21875 230.066406 172.300781 233.132812 168.070312 237.132812 L 165.640625 239.4375 L 167.953125 238.167969 C 177.1875 233.113281 183.441406 232.464844 189.066406 235.980469 C 190.820312 237.074219 192.632812 238.789062 195.078125 241.667969 C 197.003906 243.933594 198.648438 245.804688 198.734375 245.824219 C 198.816406 245.839844 198.917969 244.625 198.964844 243.125 Z M 167.8125 234.703125 C 175.347656 227.765625 177.628906 226.5625 182.496094 226.96875 C 184.933594 227.175781 185.109375 227.140625 183.921875 226.710938 C 183.179688 226.441406 180.980469 225.949219 179.035156 225.613281 C 175.949219 225.085938 175.183594 225.089844 173.0625 225.65625 C 171.722656 226.015625 170.183594 226.699219 169.640625 227.175781 C 169.101562 227.65625 167.628906 229.867188 166.371094 232.089844 C 163.460938 237.246094 162.027344 240.03125 162.523438 239.574219 C 162.734375 239.375 165.117188 237.183594 167.8125 234.703125 Z M 186.523438 227.570312 C 186.40625 227.425781 186.066406 227.375 185.769531 227.460938 C 185.441406 227.554688 185.523438 227.65625 185.984375 227.722656 C 186.398438 227.785156 186.644531 227.710938 186.523438 227.566406 Z M 198.925781 204.675781 C 197.203125 200.355469 196.609375 199.855469 193.167969 199.828125 C 191.71875 199.816406 190.472656 199.855469 190.402344 199.910156 C 190.332031 199.96875 190.429688 201.332031 190.613281 202.941406 C 190.945312 205.796875 190.984375 205.871094 192.175781 206.007812 C 192.851562 206.085938 194.882812 206.625 196.691406 207.199219 C 198.503906 207.777344 200.050781 208.210938 200.128906 208.160156 C 200.210938 208.113281 199.667969 206.542969 198.925781 204.675781 Z M 175.441406 202.089844 C 180.148438 199.894531 182.535156 199.121094 186.273438 198.574219 C 187.871094 198.339844 188.378906 198.097656 188.296875 197.625 C 188.238281 197.277344 188.183594 195.863281 188.171875 194.488281 C 188.164062 192.84375 187.984375 191.972656 187.644531 191.9375 C 187.363281 191.910156 185.378906 192.550781 183.242188 193.359375 C 179.917969 194.621094 178.667969 195.386719 174.671875 198.617188 C 171.566406 201.125 169.960938 202.691406 169.902344 203.261719 C 169.855469 203.738281 170.046875 204.148438 170.332031 204.179688 C 170.617188 204.207031 172.914062 203.265625 175.441406 202.089844 Z M 172.632812 183.386719 C 178.109375 182.824219 185.253906 180.683594 185.816406 179.441406 C 186.324219 178.304688 177.238281 176.097656 168.308594 175.1875 C 165.78125 174.929688 163.171875 174.464844 162.503906 174.152344 C 161 173.453125 160.289062 171.761719 160.550781 169.519531 C 160.800781 167.40625 162.359375 161.011719 162.824219 160.191406 C 163.105469 159.699219 162.839844 159.503906 161.398438 159.15625 C 157.507812 158.214844 152.898438 154.085938 152.316406 151.023438 C 152.136719 150.097656 151.664062 149.003906 151.261719 148.59375 C 150.222656 147.53125 150.839844 146.949219 154.5625 145.480469 C 156.28125 144.804688 159.375 143.5625 161.441406 142.722656 C 164.914062 141.304688 165.355469 141.222656 167.351562 141.609375 L 169.507812 142.023438 L 170.964844 138.335938 C 171.765625 136.308594 172.359375 134.578125 172.289062 134.488281 C 172.214844 134.398438 171.777344 134.484375 171.3125 134.671875 C 170.042969 135.195312 166.554688 134.710938 165.054688 133.804688 C 163.039062 132.582031 161.253906 130.128906 161.519531 128.933594 C 161.707031 128.082031 161.910156 127.972656 162.914062 128.171875 C 165.398438 128.664062 168.144531 128.910156 170.855469 128.878906 C 173.886719 128.839844 174.804688 129.25 177.890625 131.996094 C 179.402344 133.339844 180.425781 132.96875 179.34375 131.472656 C 177.984375 129.597656 176.402344 129.066406 170.140625 128.390625 L 164.253906 127.757812 L 163.425781 126.570312 C 162.96875 125.917969 162.625 125.117188 162.65625 124.796875 C 162.78125 123.5625 164.164062 121.65625 167.183594 118.554688 C 168.910156 116.785156 170.863281 114.464844 171.523438 113.398438 C 174.050781 109.335938 175.753906 102.824219 175.257812 99.148438 C 174.867188 96.273438 172.59375 92.949219 172.664062 95.359375 C 172.679688 95.855469 172.742188 97.820312 172.800781 99.730469 C 172.882812 102.300781 172.773438 103.402344 172.382812 103.984375 C 171.183594 105.769531 165.46875 106.90625 160.265625 106.390625 C 156.253906 105.992188 153.125 104.546875 150.054688 101.667969 C 148.671875 100.371094 146.777344 98.652344 145.84375 97.847656 C 144.90625 97.042969 143.753906 96.050781 143.28125 95.640625 C 142.558594 95.019531 142.515625 94.820312 143.003906 94.429688 C 143.492188 94.035156 144.03125 94.234375 146.222656 95.601562 C 149.546875 97.679688 156.058594 100.546875 159.652344 101.519531 C 161.167969 101.929688 164.328125 102.40625 166.675781 102.574219 L 170.945312 102.882812 L 170.847656 101.472656 C 170.796875 100.695312 170.765625 98.984375 170.777344 97.664062 C 170.832031 92.4375 171.28125 93.152344 165.152344 88.722656 C 156.75 82.648438 155.792969 82.371094 148.21875 83.789062 C 145.453125 84.304688 144.390625 84.351562 143.910156 83.984375 C 143.347656 83.550781 143.113281 83.871094 141.925781 86.710938 C 138.535156 94.789062 133.039062 114.308594 130.308594 127.953125 C 129.316406 132.914062 128.726562 140.945312 129.132812 143.972656 C 130.019531 150.554688 133.261719 157.449219 138.753906 164.445312 C 150.089844 178.882812 160.390625 184.640625 172.632812 183.386719 Z M 123.859375 170.492188 C 124.550781 169.117188 124.761719 167.949219 124.945312 164.5 C 125.128906 161.015625 124.90625 158.445312 123.746094 150.675781 C 122.960938 145.429688 122.285156 140.15625 122.242188 138.960938 C 122.191406 137.546875 122.03125 136.976562 121.789062 137.324219 C 120.535156 139.113281 118.367188 155.449219 118.496094 162.152344 C 118.671875 171.324219 121.347656 175.488281 123.859375 170.492188 Z M 230.457031 172.109375 C 231.632812 170.65625 230.597656 168.246094 227.199219 164.539062 C 221 157.769531 219.488281 155.859375 219.582031 154.921875 C 219.769531 153.070312 221.488281 153.957031 226.1875 158.320312 C 231.097656 162.882812 233.78125 164.621094 236.503906 165.007812 C 237.917969 165.207031 247.5 164.253906 248.199219 163.847656 C 248.589844 163.621094 245.773438 155.097656 244.96875 154.070312 C 243.144531 151.726562 241.570312 151.410156 227.617188 150.585938 C 220.945312 150.1875 219.667969 150.015625 218.445312 149.347656 C 216.789062 148.441406 216.617188 147.078125 218.117188 146.691406 C 218.625 146.558594 221.457031 146.578125 224.410156 146.730469 C 230.261719 147.035156 236.085938 146.601562 239.011719 145.648438 C 241.640625 144.789062 244.164062 142.804688 245.359375 140.652344 C 246.347656 138.871094 248.457031 132.171875 248.148438 131.789062 C 248.0625 131.6875 246.742188 132.144531 245.210938 132.808594 C 242.703125 133.894531 242.371094 133.949219 241.878906 133.347656 C 241.386719 132.742188 241.628906 132.398438 244.304688 129.890625 C 245.941406 128.359375 247.847656 126.152344 248.542969 124.984375 C 249.667969 123.097656 249.882812 122.28125 250.484375 117.609375 C 251.277344 111.472656 251.222656 109.609375 250.253906 109.511719 C 249.882812 109.476562 247.648438 109.859375 245.285156 110.371094 C 242.925781 110.878906 238.816406 111.742188 236.160156 112.292969 C 231.785156 113.199219 231.089844 113.472656 228.882812 115.144531 L 226.441406 116.996094 L 226.90625 119.226562 C 227.492188 122.054688 226.996094 127.210938 225.835938 130.375 C 224.59375 133.757812 221.128906 139.339844 219.171875 141.109375 C 217.058594 143.019531 215.632812 142.917969 215.257812 140.828125 C 214.769531 138.097656 219.109375 125.453125 222.511719 119.695312 L 224.167969 116.898438 L 223.121094 115.078125 C 222.542969 114.074219 220.398438 111.105469 218.347656 108.480469 C 216.300781 105.855469 213.625 102.007812 212.40625 99.929688 L 210.1875 96.152344 L 209.179688 97.183594 C 208.628906 97.75 207.546875 99.636719 206.777344 101.378906 C 205.621094 104.003906 205.367188 105.023438 205.300781 107.355469 C 205.226562 109.867188 205.476562 110.851562 207.613281 116.5 C 210.289062 123.570312 210.667969 125.5 210.820312 132.707031 C 210.878906 135.464844 211.164062 138.910156 211.453125 140.371094 C 211.746094 141.828125 211.957031 143.320312 211.921875 143.683594 C 211.882812 144.046875 212.511719 145.160156 213.316406 146.152344 C 215.058594 148.3125 215.027344 148.503906 212.058594 153.898438 C 209.917969 157.785156 209.402344 159.667969 210.171875 160.8125 C 210.429688 161.195312 211.664062 162.230469 212.914062 163.117188 C 214.167969 164 215.863281 165.5 216.6875 166.441406 C 219.402344 169.554688 220.652344 170.488281 223.535156 171.5625 C 227.625 173.089844 229.539062 173.238281 230.457031 172.109375 Z M 177.816406 159.917969 C 179.464844 159.429688 181.664062 158.214844 181.707031 157.765625 C 181.726562 157.585938 181.03125 157.070312 180.167969 156.617188 C 178.578125 155.785156 169.699219 152.535156 168.761719 152.4375 C 168.433594 152.40625 168.195312 152.972656 168.082031 154.070312 C 167.976562 155.109375 167.484375 156.34375 166.800781 157.304688 L 165.691406 158.855469 L 168.875 159.5625 C 172.5 160.371094 175.824219 160.503906 177.816406 159.917969 Z M 164.585938 156.835938 C 165.730469 155.902344 166.722656 153.261719 166.304688 152.25 C 165.949219 151.382812 163.222656 150.679688 158.261719 150.175781 C 154.355469 149.78125 153.972656 149.90625 154.558594 151.390625 C 155.171875 152.945312 156.988281 154.765625 159.28125 156.136719 C 161.597656 157.519531 163.453125 157.761719 164.585938 156.835938 Z M 183.0625 155.234375 C 184.316406 155.03125 184.25 154.667969 182.8125 153.785156 C 182.136719 153.375 180.371094 151.703125 178.890625 150.066406 C 173.90625 144.574219 172.589844 143.722656 170.941406 144.914062 C 169.808594 145.738281 168.738281 147.660156 168.585938 149.144531 C 168.472656 150.269531 168.511719 150.292969 172.636719 151.609375 C 174.925781 152.339844 177.914062 153.457031 179.28125 154.089844 C 180.644531 154.722656 181.851562 155.273438 181.957031 155.3125 C 182.0625 155.351562 182.5625 155.316406 183.0625 155.234375 Z M 166.640625 148.632812 C 166.703125 147.984375 167.128906 146.742188 167.585938 145.875 C 168.371094 144.367188 168.378906 144.261719 167.730469 143.679688 C 167.355469 143.34375 166.742188 143.039062 166.363281 143 C 165.640625 142.925781 162.550781 144.121094 157.238281 146.523438 L 154.078125 147.953125 L 157.867188 148.214844 C 159.953125 148.359375 162.621094 148.742188 163.796875 149.066406 C 164.972656 149.394531 166.066406 149.695312 166.226562 149.738281 C 166.386719 149.777344 166.574219 149.28125 166.640625 148.632812 Z M 203.175781 145.445312 L 208.523438 144.21875 L 206.867188 142.878906 C 204.332031 140.828125 203.871094 139.316406 204.539062 135.269531 C 204.84375 133.433594 205.3125 130.917969 205.582031 129.679688 C 206.195312 126.851562 205.765625 125.300781 203.980469 123.921875 C 202.789062 123.003906 202.132812 122.835938 198.277344 122.460938 C 195.882812 122.226562 191.28125 121.925781 188.050781 121.785156 L 182.179688 121.53125 L 182.054688 122.757812 C 181.851562 124.816406 183.472656 135 184.453125 137.792969 C 185.632812 141.167969 187.59375 143.824219 189.96875 145.273438 C 192.769531 146.984375 196.285156 147.027344 203.175781 145.445312 Z M 231.484375 148.929688 C 231.222656 148.792969 230.777344 148.75 230.496094 148.832031 C 230.210938 148.914062 230.425781 149.027344 230.96875 149.082031 C 231.511719 149.136719 231.746094 149.070312 231.484375 148.929688 Z M 220.378906 136.542969 C 222.84375 132.824219 224.648438 128.550781 225.066406 125.46875 C 225.464844 122.5 225.300781 119.644531 224.746094 119.914062 C 223.65625 120.441406 218.617188 133.003906 217.476562 138.023438 C 216.953125 140.328125 216.953125 140.328125 217.839844 139.683594 C 218.328125 139.332031 219.46875 137.917969 220.378906 136.542969 Z M 172.070312 132.074219 C 174.234375 130.878906 173.585938 130.660156 168.347656 130.820312 C 164.757812 130.929688 164.5 130.992188 165.195312 131.59375 C 167.226562 133.34375 169.488281 133.503906 172.070312 132.074219 Z M 126.726562 122.414062 C 127.523438 120.945312 127.882812 118.710938 127.335938 118.65625 C 126.816406 118.601562 125.414062 121.464844 124.941406 123.550781 C 124.539062 125.3125 124.546875 125.34375 125.269531 124.550781 C 125.675781 124.101562 126.335938 123.140625 126.726562 122.414062 Z M 138.359375 90.664062 C 143.320312 76.710938 149.765625 68.011719 159.695312 61.863281 C 164.363281 58.972656 172.585938 55.382812 179.710938 53.121094 L 183.84375 51.8125 L 190.246094 52.457031 C 196.085938 53.046875 196.75 53.042969 197.847656 52.398438 C 200.253906 50.988281 201.792969 47.09375 201.253906 43.769531 C 200.890625 41.535156 198.644531 38.726562 196.453125 37.769531 C 190.359375 35.105469 176.621094 35.492188 167.941406 38.574219 C 162.574219 40.480469 159.339844 42.320312 154.835938 46.03125 C 144.574219 54.488281 137.328125 66.925781 130.660156 87.542969 C 129.527344 91.054688 128.570312 94.179688 128.539062 94.488281 C 128.5 94.886719 128.992188 95.097656 130.238281 95.226562 C 132.066406 95.410156 134.171875 96.929688 135.03125 98.6875 C 135.390625 99.421875 135.476562 99.339844 135.914062 97.839844 C 136.179688 96.929688 137.28125 93.699219 138.359375 90.664062 Z M 171.027344 89.394531 C 171.183594 87.550781 169.402344 85.195312 165.59375 82.199219 C 164.035156 80.976562 163.398438 80.726562 161.363281 80.546875 C 160.042969 80.433594 158.226562 80.480469 157.332031 80.660156 L 155.699219 80.984375 L 157.574219 81.671875 C 159.738281 82.464844 162.3125 84.089844 167.019531 87.640625 C 168.859375 89.03125 170.496094 90.191406 170.65625 90.226562 C 170.816406 90.261719 170.984375 89.882812 171.027344 89.394531 Z M 171.027344 89.394531 " fill-opacity="1" fill-rule="nonzero"/></g></g></g><g clip-path="url(#3de2b2bfcd)"><path fill="#e0ebcd" d="M 86.863281 73.324219 C 86.960938 74.195312 87.125 75.050781 87.367188 75.890625 C 87.605469 76.730469 87.914062 77.542969 88.292969 78.332031 C 88.671875 79.121094 89.113281 79.871094 89.617188 80.585938 C 90.125 81.300781 90.683594 81.964844 91.304688 82.582031 C 91.921875 83.203125 92.585938 83.761719 93.300781 84.269531 C 94.015625 84.773438 94.765625 85.214844 95.554688 85.59375 C 96.339844 85.972656 97.15625 86.28125 97.996094 86.519531 C 98.835938 86.757812 99.691406 86.925781 100.5625 87.023438 C 106.09375 87.574219 111.640625 87.828125 117.199219 87.78125 C 111.636719 87.734375 106.09375 87.988281 100.558594 88.539062 C 99.691406 88.632812 98.835938 88.800781 97.996094 89.042969 C 97.15625 89.28125 96.339844 89.589844 95.550781 89.96875 C 94.765625 90.347656 94.011719 90.789062 93.300781 91.292969 C 92.585938 91.796875 91.921875 92.359375 91.304688 92.976562 C 90.683594 93.597656 90.121094 94.261719 89.617188 94.976562 C 89.113281 95.6875 88.671875 96.441406 88.292969 97.226562 C 87.914062 98.015625 87.605469 98.832031 87.367188 99.671875 C 87.125 100.511719 86.960938 101.367188 86.863281 102.234375 C 86.3125 107.769531 86.058594 113.3125 86.105469 118.875 C 86.152344 113.3125 85.898438 107.769531 85.347656 102.234375 C 85.253906 101.367188 85.085938 100.511719 84.84375 99.671875 C 84.605469 98.832031 84.296875 98.015625 83.917969 97.226562 C 83.539062 96.4375 83.097656 95.6875 82.59375 94.976562 C 82.089844 94.261719 81.527344 93.597656 80.910156 92.976562 C 80.289062 92.359375 79.625 91.796875 78.910156 91.292969 C 78.199219 90.789062 77.445312 90.34375 76.660156 89.96875 C 75.871094 89.589844 75.054688 89.28125 74.214844 89.042969 C 73.375 88.800781 72.519531 88.632812 71.648438 88.539062 C 66.117188 87.988281 60.570312 87.734375 55.011719 87.78125 C 60.570312 87.828125 66.117188 87.574219 71.648438 87.023438 C 72.519531 86.925781 73.375 86.761719 74.214844 86.519531 C 75.054688 86.28125 75.871094 85.972656 76.660156 85.59375 C 77.445312 85.214844 78.199219 84.773438 78.910156 84.269531 C 79.625 83.761719 80.289062 83.203125 80.910156 82.582031 C 81.527344 81.964844 82.089844 81.300781 82.59375 80.585938 C 83.097656 79.871094 83.539062 79.121094 83.917969 78.332031 C 84.296875 77.546875 84.605469 76.730469 84.84375 75.890625 C 85.085938 75.050781 85.253906 74.195312 85.347656 73.324219 C 85.898438 67.792969 86.152344 62.246094 86.105469 56.6875 C 86.058594 62.246094 86.3125 67.792969 86.863281 73.324219 Z M 86.863281 73.324219 " fill-opacity="1" fill-rule="nonzero"/></g><g clip-path="url(#afc34f3da9)"><path fill="#e0ebcd" d="M 117.664062 46.671875 C 117.722656 47.203125 117.824219 47.726562 117.96875 48.238281 C 118.117188 48.753906 118.304688 49.25 118.535156 49.730469 C 118.765625 50.210938 119.035156 50.671875 119.34375 51.105469 C 119.652344 51.542969 119.996094 51.949219 120.371094 52.324219 C 120.75 52.703125 121.15625 53.046875 121.59375 53.355469 C 122.027344 53.664062 122.488281 53.933594 122.96875 54.164062 C 123.449219 54.394531 123.945312 54.582031 124.460938 54.730469 C 124.972656 54.875 125.496094 54.976562 126.027344 55.035156 C 129.402344 55.371094 132.789062 55.527344 136.183594 55.5 C 132.789062 55.472656 129.402344 55.625 126.027344 55.960938 C 125.496094 56.019531 124.972656 56.121094 124.460938 56.269531 C 123.945312 56.414062 123.449219 56.601562 122.96875 56.835938 C 122.488281 57.066406 122.027344 57.335938 121.59375 57.644531 C 121.15625 57.953125 120.75 58.292969 120.371094 58.671875 C 119.996094 59.050781 119.652344 59.457031 119.34375 59.890625 C 119.035156 60.328125 118.765625 60.785156 118.535156 61.265625 C 118.304688 61.75 118.117188 62.246094 117.96875 62.757812 C 117.824219 63.273438 117.722656 63.792969 117.664062 64.324219 C 117.324219 67.703125 117.171875 71.089844 117.199219 74.484375 C 117.226562 71.089844 117.070312 67.703125 116.734375 64.324219 C 116.675781 63.792969 116.574219 63.273438 116.429688 62.757812 C 116.28125 62.246094 116.09375 61.75 115.863281 61.265625 C 115.632812 60.785156 115.363281 60.328125 115.054688 59.890625 C 114.746094 59.457031 114.402344 59.050781 114.023438 58.671875 C 113.648438 58.296875 113.242188 57.953125 112.804688 57.644531 C 112.371094 57.335938 111.914062 57.066406 111.429688 56.835938 C 110.949219 56.605469 110.453125 56.414062 109.9375 56.269531 C 109.425781 56.121094 108.902344 56.019531 108.375 55.960938 C 104.996094 55.625 101.609375 55.472656 98.214844 55.5 C 101.609375 55.527344 104.996094 55.371094 108.375 55.035156 C 108.902344 54.976562 109.425781 54.875 109.9375 54.730469 C 110.453125 54.582031 110.949219 54.394531 111.429688 54.164062 C 111.914062 53.933594 112.371094 53.664062 112.808594 53.355469 C 113.242188 53.046875 113.648438 52.703125 114.027344 52.324219 C 114.402344 51.949219 114.746094 51.542969 115.054688 51.105469 C 115.363281 50.671875 115.632812 50.210938 115.863281 49.730469 C 116.09375 49.25 116.285156 48.753906 116.429688 48.238281 C 116.574219 47.726562 116.679688 47.203125 116.734375 46.671875 C 117.074219 43.296875 117.226562 39.910156 117.199219 36.515625 C 117.171875 39.910156 117.324219 43.296875 117.664062 46.671875 Z M 117.664062 46.671875 " fill-opacity="1" fill-rule="nonzero"/></g><g fill="#e0ebcd" fill-opacity="1"><g transform="translate(228.532812, 250.349745)"><g><path d="M 5.066406 0 L 25.335938 0 C 49.480469 0 57.824219 -11.722656 57.625 -22.851562 C 57.527344 -32.589844 50.375 -40.636719 34.179688 -41.429688 C 45.503906 -43.519531 49.875 -49.675781 49.875 -56.433594 C 49.875 -64.480469 43.617188 -69.546875 28.316406 -69.546875 L 5.066406 -69.546875 L 5.066406 -68.257812 C 8.046875 -67.363281 9.042969 -65.078125 9.042969 -56.929688 L 9.042969 -12.617188 C 9.042969 -4.472656 8.046875 -2.1875 5.066406 -1.292969 Z M 17.1875 -10.132812 L 17.1875 -40.140625 L 27.324219 -40.140625 C 42.226562 -40.140625 48.585938 -31.792969 48.585938 -20.367188 C 48.585938 -9.339844 42.425781 -1.492188 26.230469 -1.492188 L 22.355469 -1.492188 C 18.082031 -1.492188 17.1875 -2.980469 17.1875 -10.132812 Z M 17.1875 -41.628906 L 17.1875 -68.058594 L 24.738281 -68.058594 C 34.972656 -68.058594 40.835938 -62.890625 40.835938 -54.644531 C 40.835938 -47.390625 36.265625 -41.628906 26.429688 -41.628906 Z M 17.1875 -41.628906 "/></g></g></g><g fill="#e0ebcd" fill-opacity="1"><g transform="translate(255.775622, 285.274797)"><g><path d="M 28.316406 0.992188 C 40.039062 0.992188 51.566406 -6.558594 51.566406 -18.976562 C 51.566406 -30.203125 41.234375 -34.574219 30.203125 -38.949219 C 21.757812 -42.425781 11.523438 -46.199219 11.523438 -55.539062 C 11.523438 -63.984375 18.378906 -68.65625 26.429688 -68.65625 C 37.753906 -68.65625 44.710938 -62.496094 48.386719 -53.851562 L 49.378906 -54.148438 L 48.980469 -65.675781 C 45.105469 -67.761719 38.648438 -70.246094 29.609375 -70.246094 C 15.003906 -70.246094 5.363281 -62.890625 5.363281 -51.265625 C 5.363281 -40.734375 12.816406 -36.5625 24.539062 -31.894531 C 32.886719 -28.515625 45.105469 -23.945312 45.105469 -14.007812 C 45.105469 -5.960938 38.25 -0.792969 30.304688 -0.792969 C 16.492188 -0.792969 8.941406 -9.636719 5.066406 -20.070312 L 3.972656 -19.871094 L 4.472656 -6.0625 C 9.140625 -2.683594 17.882812 0.992188 28.316406 0.992188 Z M 28.316406 0.992188 "/></g></g></g><g fill="#e0ebcd" fill-opacity="1"><g transform="translate(37.181543, 322.461695)"><g><path d="M 5.652344 0.207031 C 7.867188 0.207031 9.480469 -1.261719 10.539062 -2.710938 L 10.351562 -2.898438 C 9.398438 -1.820312 8.261719 -1.097656 6.667969 -1.097656 C 3.976562 -1.097656 2.214844 -3.042969 2.214844 -5.878906 C 2.214844 -6.210938 2.234375 -6.523438 2.277344 -6.832031 L 10.371094 -6.832031 C 10.308594 -8.800781 8.800781 -10.496094 6.191406 -10.496094 C 3.292969 -10.496094 0.746094 -8.238281 0.746094 -4.867188 C 0.746094 -1.449219 3.375 0.207031 5.652344 0.207031 Z M 2.339844 -7.101562 C 2.671875 -8.839844 3.746094 -10.144531 5.507812 -10.125 C 7.390625 -10.125 8.507812 -8.488281 8.714844 -7.101562 Z M 2.339844 -7.101562 "/></g></g></g><g fill="#e0ebcd" fill-opacity="1"><g transform="translate(47.780271, 322.461695)"><g><path d="M 4.679688 0.1875 C 7.164062 0.164062 8.46875 -1.304688 8.46875 -3.042969 C 8.46875 -5.113281 6.5625 -5.589844 4.988281 -6.109375 C 3.355469 -6.644531 2.027344 -7.183594 2.027344 -8.488281 C 2.027344 -9.542969 2.941406 -10.226562 4.347656 -10.226562 C 5.816406 -10.226562 7.144531 -9.273438 7.804688 -7.785156 L 8.011719 -7.824219 L 7.929688 -9.9375 C 7.289062 -10.207031 6.066406 -10.496094 4.71875 -10.496094 C 2.320312 -10.496094 0.953125 -9.234375 0.953125 -7.597656 C 0.953125 -5.714844 2.359375 -5.175781 4.328125 -4.554688 C 5.921875 -4.039062 7.371094 -3.5625 7.371094 -2.070312 C 7.371094 -0.910156 6.417969 -0.144531 5.132812 -0.144531 C 3.25 -0.164062 1.78125 -1.347656 0.910156 -3.3125 L 0.726562 -3.269531 L 0.910156 -0.765625 C 1.59375 -0.3125 3.023438 0.1875 4.679688 0.1875 Z M 4.679688 0.1875 "/></g></g></g><g fill="#e0ebcd" fill-opacity="1"><g transform="translate(56.474516, 322.461695)"><g><path d="M 3.914062 0.207031 C 5.132812 0.207031 6.191406 -0.683594 7.082031 -1.699219 L 6.894531 -1.882812 C 6.210938 -1.078125 5.488281 -0.808594 4.90625 -0.808594 C 4.015625 -0.808594 3.4375 -1.347656 3.4375 -2.753906 L 3.4375 -10.0625 L 6.480469 -10.0625 L 6.582031 -10.351562 L 3.4375 -10.351562 L 3.4375 -12.898438 L 3.148438 -12.898438 L 0.496094 -10.351562 L 0.496094 -10.0625 L 1.820312 -10.0625 L 1.820312 -2.753906 C 1.820312 -0.601562 2.609375 0.207031 3.914062 0.207031 Z M 3.914062 0.207031 "/></g></g></g><g fill="#e0ebcd" fill-opacity="1"><g transform="translate(63.077972, 322.461695)"><g><path d="M 2.320312 0.144531 C 2.898438 0.144531 3.375 -0.371094 3.375 -0.972656 C 3.375 -1.574219 2.898438 -2.070312 2.320312 -2.070312 C 1.738281 -2.070312 1.242188 -1.574219 1.242188 -0.972656 C 1.242188 -0.371094 1.738281 0.144531 2.320312 0.144531 Z M 2.320312 0.144531 "/></g></g></g><g fill="#e0ebcd" fill-opacity="1"><g transform="translate(67.17663, 322.461695)"><g/></g></g><g fill="#e0ebcd" fill-opacity="1"><g transform="translate(71.006176, 322.461695)"><g><path d="M 0.105469 -0.289062 L 0.105469 0 L 9.191406 0 L 9.503906 -2.898438 L 9.296875 -2.917969 C 8.921875 -1.78125 8.488281 -1.386719 6.4375 -1.386719 L 1.71875 -1.386719 C 4.246094 -3.625 9.066406 -7.390625 9.046875 -11.304688 C 9.027344 -13.414062 7.515625 -14.636719 5.695312 -14.636719 C 3.851562 -14.636719 2.484375 -13.683594 1.347656 -12.320312 L 1.511719 -12.132812 C 2.382812 -13.105469 3.476562 -13.5625 4.554688 -13.5625 C 6.148438 -13.5625 7.203125 -12.503906 7.203125 -10.785156 C 7.203125 -6.914062 2.960938 -3.042969 0.105469 -0.289062 Z M 0.105469 -0.289062 "/></g></g></g><g fill="#e0ebcd" fill-opacity="1"><g transform="translate(80.776868, 322.461695)"><g><path d="M 7.144531 0.207031 C 10.308594 0.207031 13.355469 -2.628906 13.355469 -7.144531 C 13.355469 -12.195312 9.9375 -14.636719 6.996094 -14.636719 C 3.808594 -14.636719 0.765625 -11.800781 0.765625 -7.289062 C 0.765625 -2.234375 4.203125 0.207031 7.144531 0.207031 Z M 2.441406 -8.53125 C 2.464844 -11.84375 3.769531 -14.222656 6.316406 -14.222656 C 9.566406 -14.222656 11.699219 -10.042969 11.675781 -5.878906 C 11.65625 -2.589844 10.371094 -0.207031 7.867188 -0.207031 C 4.554688 -0.207031 2.421875 -4.390625 2.441406 -8.53125 Z M 2.441406 -8.53125 "/></g></g></g><g fill="#e0ebcd" fill-opacity="1"><g transform="translate(94.377224, 322.461695)"><g><path d="M 0.105469 -0.289062 L 0.105469 0 L 9.191406 0 L 9.503906 -2.898438 L 9.296875 -2.917969 C 8.921875 -1.78125 8.488281 -1.386719 6.4375 -1.386719 L 1.71875 -1.386719 C 4.246094 -3.625 9.066406 -7.390625 9.046875 -11.304688 C 9.027344 -13.414062 7.515625 -14.636719 5.695312 -14.636719 C 3.851562 -14.636719 2.484375 -13.683594 1.347656 -12.320312 L 1.511719 -12.132812 C 2.382812 -13.105469 3.476562 -13.5625 4.554688 -13.5625 C 6.148438 -13.5625 7.203125 -12.503906 7.203125 -10.785156 C 7.203125 -6.914062 2.960938 -3.042969 0.105469 -0.289062 Z M 0.105469 -0.289062 "/></g></g></g><g fill="#e0ebcd" fill-opacity="1"><g transform="translate(104.147916, 322.461695)"><g><path d="M 0.640625 2.628906 L 0.765625 2.898438 C 5.15625 0.578125 8.859375 -2.113281 8.859375 -5.589844 C 8.859375 -7.929688 6.789062 -8.613281 5.445312 -8.613281 C 4.96875 -8.613281 4.597656 -8.550781 4.265625 -8.445312 C 6.230469 -9.441406 7.640625 -10.371094 7.640625 -12.214844 C 7.640625 -13.476562 6.605469 -14.636719 4.867188 -14.636719 C 3.1875 -14.636719 1.925781 -13.808594 0.726562 -12.464844 L 0.910156 -12.277344 C 1.800781 -13.1875 2.816406 -13.601562 3.808594 -13.601562 C 5.132812 -13.601562 6.003906 -12.878906 6.003906 -11.636719 C 6.003906 -10.042969 4.949219 -8.964844 2.980469 -8.054688 L 3.0625 -7.847656 C 3.519531 -8.074219 4.015625 -8.199219 4.472656 -8.199219 C 5.714844 -8.199219 7.039062 -7.617188 7.039062 -5.238281 C 7.039062 -2.691406 4.617188 0.601562 0.640625 2.628906 Z M 0.640625 2.628906 "/></g></g></g></svg>